<svg width="97" height="55" viewBox="0 0 97 55" fill="none" xmlns="http://www.w3.org/2000/svg">
<path d="M35.935 27.9013C34.445 27.9013 33.1757 28.3752 32.1271 29.295C30.9958 30.2984 30.4439 31.5528 30.4439 33.1137C30.4439 34.6746 30.9958 35.9568 32.1271 36.9323C33.1757 37.8522 34.4725 38.326 35.9626 38.326H36.68V35.8174H36.1281C35.3279 35.8174 34.6381 35.5944 34.0311 35.1206C33.3688 34.6188 33.0377 33.9499 33.0377 33.1137C33.0377 32.2775 33.3688 31.6085 34.0035 31.1068C34.6105 30.6608 35.3003 30.4099 36.1281 30.4099H41.0397V38.326H43.6611V30.4099H48.2139L50.6421 27.9013H35.935ZM52.7668 27.9013L45.0131 34.8976V38.5769L52.7668 31.6085V34.368H50.5593L47.7448 36.9323H52.7392V38.326H55.5261V27.9013H52.7668ZM63.059 27.9013V31.8594H59.5547V27.6505L56.7954 30.1591V38.326H59.5547V34.368H63.059V38.326H65.8183V27.9013H63.059ZM77.8214 27.9013H74.1515L69.6262 32.166V27.6783L66.9497 30.187V38.326H69.6262V35.8174L70.8403 34.6746L75.0069 38.549V34.9254L72.7994 32.8349L77.8214 27.9013ZM94.1565 27.5947V31.8036H90.7074V27.8456H87.9756V35.8174H86.6788V27.9013H84.3609L79.6977 32.2775V27.7062L76.9936 30.2148V38.549L83.9746 32.0545V38.3539L90.7074 38.2981V34.3401H94.1565V38.2981H96.8882V30.1033L94.1565 27.5947ZM61.2103 4.45975L63.4177 8.58502L68.2741 7.9718L64.1352 10.2017L66.0667 13.4629L62.59 11.7905L58.9201 15.7764L60.4653 10.9821L51.6631 10.4247L60.9344 8.66864L61.2103 4.45975Z" fill="#D3043A"/>
<path d="M31.051 42.9809V40.4723H31.8236L32.2927 42.2004L32.7618 40.4723H33.5344V42.9809H33.0377V41.0019L32.5134 42.9809H32.0168L31.4925 41.0019V42.9809H31.051ZM33.9759 41.7266C33.9759 41.4757 34.0035 41.2527 34.0862 41.0855C34.1414 40.9461 34.2242 40.8346 34.3346 40.751C34.445 40.6395 34.5553 40.5838 34.6657 40.528C34.8313 40.4723 35.0244 40.4165 35.2176 40.4165C35.6039 40.4165 35.9074 40.528 36.1281 40.751C36.3489 40.974 36.4592 41.3085 36.4592 41.6987C36.4592 42.1168 36.3489 42.4234 36.1281 42.6464C35.9074 42.8694 35.6039 42.9809 35.2176 42.9809C34.8313 42.9809 34.5277 42.8694 34.307 42.6464C34.1138 42.4513 33.9759 42.1168 33.9759 41.7266V41.7266ZM34.5277 41.6987C34.5277 41.9774 34.5829 42.2004 34.7209 42.3398C34.8588 42.4792 35.0244 42.5628 35.2452 42.5628C35.4659 42.5628 35.6315 42.4792 35.7694 42.3398C35.9074 42.2004 35.9626 41.9774 35.9626 41.6708C35.9626 41.3921 35.9074 41.1691 35.7694 41.0297C35.6315 40.8904 35.4659 40.8067 35.2452 40.8067C35.0244 40.8067 34.8588 40.8904 34.7209 41.0297C34.5829 41.197 34.5277 41.42 34.5277 41.6987ZM38.5839 42.0332L39.0806 42.2004C38.9978 42.4792 38.8874 42.6743 38.6943 42.8136C38.5011 42.953 38.2804 43.0087 38.0045 43.0087C37.6733 43.0087 37.3698 42.8973 37.1491 42.6743C36.9283 42.4513 36.818 42.1447 36.818 41.7266C36.818 41.3085 36.9283 40.974 37.1491 40.751C37.3698 40.528 37.6733 40.4165 38.0321 40.4165C38.3356 40.4165 38.6115 40.5001 38.8047 40.6953C38.915 40.8067 38.9978 40.9461 39.0806 41.1691L38.5563 41.2806C38.5287 41.1412 38.4735 41.0576 38.3632 40.974C38.2528 40.8904 38.1424 40.8625 38.0045 40.8625C37.8113 40.8625 37.6458 40.9182 37.5354 41.0576C37.425 41.197 37.3698 41.42 37.3698 41.6987C37.3698 42.0053 37.425 42.2562 37.5354 42.3677C37.6458 42.507 37.8113 42.5628 38.0045 42.5628C38.1424 42.5628 38.2528 42.507 38.3632 42.4234C38.4735 42.3677 38.5563 42.2283 38.5839 42.0332V42.0332ZM39.6049 40.4444H40.1291V41.5036C40.2395 41.5036 40.3223 41.4757 40.3775 41.42C40.4051 41.3642 40.4878 41.2527 40.5706 41.0297C40.681 40.751 40.7914 40.5838 40.9017 40.528C41.0121 40.4723 41.1777 40.4165 41.426 40.4165C41.426 40.4165 41.4536 40.4165 41.5088 40.4165V40.7789H41.426C41.3156 40.7789 41.2329 40.7789 41.1777 40.8067C41.1225 40.8346 41.0949 40.8625 41.0673 40.9182C41.0397 40.974 40.9845 41.0855 40.9293 41.2527C40.9017 41.3363 40.8742 41.42 40.819 41.4757C40.7914 41.5315 40.7086 41.5872 40.6258 41.643C40.7362 41.6708 40.8466 41.7266 40.9017 41.8381C40.9845 41.9217 41.0673 42.0611 41.1501 42.2562L41.5088 42.953H40.9017L40.5982 42.3119C40.5982 42.3119 40.5706 42.284 40.5706 42.2562C40.5706 42.2562 40.543 42.2004 40.5154 42.1447C40.4603 42.0332 40.4051 41.9496 40.3499 41.9217C40.2947 41.8938 40.2395 41.8659 40.1567 41.8659V42.9809H39.6325V40.4444H39.6049ZM41.7295 41.7266C41.7295 41.4757 41.7571 41.2527 41.8399 41.0855C41.8951 40.9461 41.9779 40.8346 42.0882 40.751C42.1986 40.6395 42.309 40.5838 42.4194 40.528C42.5849 40.4723 42.7781 40.4165 42.9712 40.4165C43.3575 40.4165 43.6611 40.528 43.8818 40.751C44.1025 40.974 44.2129 41.3085 44.2129 41.6987C44.2129 42.1168 44.1025 42.4234 43.8818 42.6464C43.6611 42.8694 43.3575 42.9809 42.9712 42.9809C42.5849 42.9809 42.2814 42.8694 42.0607 42.6464C41.8399 42.4513 41.7295 42.1168 41.7295 41.7266V41.7266ZM42.2538 41.6987C42.2538 41.9774 42.309 42.2004 42.447 42.3398C42.5849 42.4792 42.7505 42.5628 42.9712 42.5628C43.192 42.5628 43.3575 42.4792 43.4955 42.3398C43.6335 42.2004 43.6886 41.9774 43.6886 41.6708C43.6886 41.3921 43.6335 41.1691 43.4955 41.0297C43.3575 40.8904 43.192 40.8067 42.9712 40.8067C42.7505 40.8067 42.5849 40.8904 42.447 41.0297C42.3366 41.197 42.2538 41.42 42.2538 41.6987ZM44.682 40.4444H45.7029C45.8961 40.4444 46.0617 40.4444 46.172 40.4723C46.2824 40.5001 46.3652 40.528 46.448 40.5838C46.5307 40.6395 46.5859 40.6953 46.6411 40.8067C46.6963 40.8904 46.7239 41.0019 46.7239 41.1134C46.7239 41.2248 46.6963 41.3363 46.6135 41.4478C46.5583 41.5593 46.448 41.6151 46.3376 41.6708C46.5032 41.7266 46.6135 41.7823 46.6963 41.8938C46.7791 42.0053 46.8343 42.1168 46.8343 42.284C46.8343 42.3955 46.8067 42.507 46.7515 42.6185C46.6963 42.73 46.6135 42.8136 46.5307 42.8694C46.448 42.9251 46.31 42.9809 46.172 42.9809C46.0893 42.9809 45.8685 43.0087 45.5374 43.0087H44.6544V40.4444H44.682ZM45.2063 40.8625V41.4478H45.5374C45.7305 41.4478 45.8685 41.4478 45.9237 41.4478C46.0065 41.4478 46.0893 41.42 46.1444 41.3642C46.1996 41.3085 46.2272 41.2527 46.2272 41.1691C46.2272 41.0855 46.1996 41.0297 46.172 40.974C46.1168 40.9182 46.0617 40.8904 45.9789 40.8904C45.9237 40.8904 45.7857 40.8904 45.5374 40.8904H45.2063V40.8625ZM45.2063 41.8659V42.5349H45.7029C45.8961 42.5349 46.0065 42.5349 46.0617 42.507C46.1444 42.507 46.1996 42.4513 46.2548 42.3955C46.31 42.3398 46.3376 42.284 46.3376 42.1725C46.3376 42.0889 46.31 42.0332 46.2824 41.9774C46.2548 41.9217 46.1996 41.8938 46.1168 41.8659C46.0341 41.8381 45.8961 41.8381 45.6478 41.8381H45.2063V41.8659ZM48.821 42.0332L49.3177 42.2004C49.2349 42.4792 49.1245 42.6743 48.9313 42.8136C48.7382 42.953 48.5174 43.0087 48.2415 43.0087C47.9104 43.0087 47.6069 42.8973 47.3861 42.6743C47.1654 42.4513 47.055 42.1447 47.055 41.7266C47.055 41.3085 47.1654 40.974 47.3861 40.751C47.6069 40.528 47.9104 40.4165 48.2691 40.4165C48.5726 40.4165 48.8486 40.5001 49.0417 40.6953C49.1521 40.8067 49.2349 40.9461 49.3177 41.1691L48.7934 41.2806C48.7658 41.1412 48.7106 41.0576 48.6002 40.974C48.4899 40.8904 48.3795 40.8625 48.2415 40.8625C48.0484 40.8625 47.8828 40.9182 47.7724 41.0576C47.6621 41.197 47.6069 41.42 47.6069 41.6987C47.6069 42.0053 47.6621 42.2562 47.7724 42.3677C47.8828 42.507 48.0484 42.5628 48.2415 42.5628C48.3795 42.5628 48.4899 42.507 48.6002 42.4234C48.7106 42.3677 48.7934 42.2283 48.821 42.0332V42.0332ZM49.8419 40.4444H50.3662V41.5036C50.4766 41.5036 50.5593 41.4757 50.6145 41.42C50.6421 41.3642 50.7249 41.2527 50.8077 41.0297C50.9181 40.751 51.0284 40.5838 51.1388 40.528C51.2492 40.4723 51.4147 40.4165 51.6631 40.4165C51.6631 40.4165 51.6907 40.4165 51.7458 40.4165V40.7789H51.6631C51.5527 40.7789 51.4699 40.7789 51.4147 40.8067C51.3595 40.8346 51.3319 40.8625 51.3044 40.9182C51.2768 40.974 51.2216 41.0855 51.1664 41.2527C51.1388 41.3363 51.1112 41.42 51.056 41.4757C51.0284 41.5315 50.9456 41.5872 50.8629 41.643C50.9732 41.6708 51.0836 41.7266 51.1388 41.8381C51.2216 41.9217 51.3044 42.0611 51.3871 42.2562L51.7458 42.953H51.1388L50.8353 42.3119C50.8353 42.3119 50.8077 42.284 50.8077 42.2562C50.8077 42.2562 50.7801 42.2004 50.7525 42.1447C50.6973 42.0332 50.6421 41.9496 50.5869 41.9217C50.5318 41.8938 50.4766 41.8659 50.3938 41.8659V42.9809H49.8419V40.4444ZM52.077 40.4444H52.5736V42.1168L53.6222 40.4444H54.1465V42.953H53.6498V41.3363L52.6012 42.9809H52.077V40.4444ZM54.6983 40.4444H55.195V42.1168L56.2435 40.4444H56.7678V42.953H56.2711V41.3363L55.2226 42.9809H54.6983V40.4444ZM56.0504 39.8312H56.2987C56.2711 39.9984 56.2159 40.1099 56.1332 40.1935C56.0228 40.2771 55.9124 40.3329 55.7468 40.3329C55.5813 40.3329 55.4709 40.2771 55.3605 40.1935C55.2502 40.1099 55.195 39.9705 55.195 39.8312H55.4433C55.4433 39.9148 55.4709 39.9705 55.5261 40.0263C55.5813 40.0542 55.6365 40.082 55.7468 40.082C55.8296 40.082 55.9124 40.0542 55.9676 40.0263C56.0228 39.9984 56.0504 39.9148 56.0504 39.8312ZM58.7821 40.4444H60.5205V40.8625H59.2788V42.953H58.7545V40.4444H58.7821ZM60.686 41.7266C60.686 41.4757 60.7136 41.2527 60.7964 41.0855C60.8516 40.9461 60.9344 40.8346 61.0447 40.751C61.1551 40.6395 61.2655 40.5838 61.3758 40.528C61.5414 40.4723 61.7346 40.4165 61.9277 40.4165C62.314 40.4165 62.6175 40.528 62.8383 40.751C63.059 40.974 63.1694 41.3085 63.1694 41.6987C63.1694 42.1168 63.059 42.4234 62.8383 42.6464C62.6175 42.8694 62.314 42.9809 61.9277 42.9809C61.5414 42.9809 61.2379 42.8694 61.0171 42.6464C60.7964 42.4513 60.686 42.1168 60.686 41.7266V41.7266ZM61.2379 41.6987C61.2379 41.9774 61.2931 42.2004 61.431 42.3398C61.569 42.4792 61.7346 42.5628 61.9553 42.5628C62.176 42.5628 62.3416 42.4792 62.4796 42.3398C62.6175 42.2004 62.6727 41.9774 62.6727 41.6708C62.6727 41.3921 62.6175 41.1691 62.4796 41.0297C62.3416 40.8904 62.176 40.8067 61.9553 40.8067C61.7346 40.8067 61.569 40.8904 61.431 41.0297C61.2931 41.197 61.2379 41.42 61.2379 41.6987ZM65.2941 42.0332L65.7907 42.2004C65.708 42.4792 65.5976 42.6743 65.4044 42.8136C65.2113 42.953 64.9905 43.0087 64.7146 43.0087C64.3835 43.0087 64.08 42.8973 63.8592 42.6743C63.6385 42.4513 63.5281 42.1447 63.5281 41.7266C63.5281 41.3085 63.6385 40.974 63.8592 40.751C64.08 40.528 64.3835 40.4165 64.7422 40.4165C65.0457 40.4165 65.3217 40.5001 65.5148 40.6953C65.6252 40.8067 65.708 40.9461 65.7907 41.1691L65.2665 41.2806C65.2389 41.1412 65.1837 41.0576 65.0733 40.974C64.963 40.8904 64.8526 40.8625 64.7146 40.8625C64.5215 40.8625 64.3559 40.9182 64.2455 41.0576C64.1352 41.197 64.08 41.42 64.08 41.6987C64.08 42.0053 64.1352 42.2562 64.2455 42.3677C64.3559 42.507 64.5215 42.5628 64.7146 42.5628C64.8526 42.5628 64.963 42.507 65.0733 42.4234C65.1837 42.3677 65.2665 42.2283 65.2941 42.0332V42.0332ZM65.9839 40.4444H66.5634L67.1704 41.7544L67.6947 40.4444H68.2465L67.3636 42.3677C67.2808 42.5628 67.1704 42.73 67.06 42.8415C66.9497 42.953 66.8393 43.0087 66.6737 43.0087C66.5082 43.0087 66.3978 43.0087 66.315 42.9809V42.5906C66.3978 42.5906 66.453 42.5906 66.5082 42.5906C66.6185 42.5906 66.7289 42.5628 66.7565 42.5349C66.8117 42.4792 66.8669 42.3955 66.8945 42.2562L65.9839 40.4444ZM68.5501 40.4444H70.3436V42.5349H70.5644V43.5105H70.1229V42.953H68.4949V43.5105H68.0534V42.5349H68.2741C68.3845 42.3119 68.4397 42.0611 68.4949 41.7823C68.5225 41.5036 68.5501 41.1412 68.5501 40.6953V40.4444ZM69.0467 40.8625C69.0467 41.6151 68.964 42.1725 68.826 42.5349H69.8193V40.8625H69.0467ZM73.3513 42.9809H72.7718L72.5511 42.3955H71.5301L71.3094 42.9809H70.7575L71.7785 40.4723H72.3303L73.3513 42.9809ZM72.4131 41.9774L72.0544 41.0297L71.6957 41.9774H72.4131ZM73.6824 42.9809V40.4723H74.5102C74.8413 40.4723 75.0345 40.4723 75.1172 40.5001C75.2552 40.528 75.3932 40.6116 75.4759 40.751C75.5863 40.8904 75.6139 41.0297 75.6139 41.2527C75.6139 41.42 75.5863 41.5315 75.5311 41.643C75.4759 41.7544 75.3932 41.8381 75.3104 41.8938C75.2276 41.9496 75.1172 42.0053 75.0344 42.0053C74.8965 42.0332 74.7309 42.0332 74.4826 42.0332H74.1515V42.9809H73.6824ZM74.2067 40.8625V41.5872H74.4826C74.6757 41.5872 74.8137 41.5872 74.8965 41.5593C74.9793 41.5315 75.0069 41.5036 75.062 41.4478C75.0896 41.3921 75.1172 41.3363 75.1172 41.2527C75.1172 41.1691 75.0896 41.0855 75.0344 41.0297C74.9793 40.974 74.8965 40.9461 74.8137 40.9182C74.7585 40.9182 74.6206 40.8904 74.4274 40.8904H74.2067V40.8625ZM77.6834 42.0332L78.1801 42.2004C78.0973 42.4792 77.9869 42.6743 77.7938 42.8136C77.6006 42.953 77.3799 43.0087 77.1039 43.0087C76.7728 43.0087 76.4693 42.8973 76.2486 42.6743C76.0278 42.4513 75.9174 42.1447 75.9174 41.7266C75.9174 41.3085 76.0278 40.974 76.2486 40.751C76.4693 40.528 76.7728 40.4165 77.1315 40.4165C77.4351 40.4165 77.711 40.5001 77.9041 40.6953C78.0145 40.8067 78.0973 40.9461 78.1801 41.1691L77.6558 41.2806C77.6282 41.1412 77.573 41.0576 77.4627 40.974C77.3523 40.8904 77.2419 40.8625 77.1039 40.8625C76.9108 40.8625 76.7452 40.9182 76.6349 41.0576C76.5245 41.197 76.4693 41.42 76.4693 41.6987C76.4693 42.0053 76.5245 42.2562 76.6349 42.3677C76.7452 42.507 76.9108 42.5628 77.1039 42.5628C77.2419 42.5628 77.3523 42.507 77.4627 42.4234C77.573 42.3677 77.6282 42.2283 77.6834 42.0332V42.0332ZM79.1734 42.9809V40.8904H78.4008V40.4723H80.4427V40.8904H79.6701V42.9809H79.1734ZM80.829 40.4444H81.85C82.0431 40.4444 82.2087 40.4444 82.319 40.4723C82.4294 40.5001 82.5122 40.528 82.595 40.5838C82.6778 40.6395 82.7329 40.6953 82.7881 40.8067C82.8433 40.8904 82.8709 41.0019 82.8709 41.1134C82.8709 41.2248 82.8433 41.3363 82.7605 41.4478C82.7053 41.5593 82.595 41.6151 82.4846 41.6708C82.6502 41.7266 82.7605 41.7823 82.8433 41.8938C82.9261 42.0053 82.9813 42.1168 82.9813 42.284C82.9813 42.3955 82.9537 42.507 82.8985 42.6185C82.8433 42.73 82.7605 42.8136 82.6778 42.8694C82.595 42.9251 82.457 42.9809 82.319 42.9809C82.2363 42.9809 82.0155 43.0087 81.6844 43.0087H80.8014V40.4444H80.829ZM81.3533 40.8625V41.4478H81.6844C81.8775 41.4478 82.0155 41.4478 82.0707 41.4478C82.1535 41.4478 82.2363 41.42 82.2914 41.3642C82.3466 41.3085 82.3742 41.2527 82.3742 41.1691C82.3742 41.0855 82.3466 41.0297 82.319 40.974C82.2639 40.9182 82.2087 40.8904 82.1259 40.8904C82.0707 40.8904 81.9327 40.8904 81.6844 40.8904H81.3533V40.8625ZM81.3533 41.8659V42.5349H81.85C82.0431 42.5349 82.1535 42.5349 82.2087 42.507C82.2914 42.507 82.3466 42.4513 82.4018 42.3955C82.457 42.3398 82.4846 42.284 82.4846 42.1725C82.4846 42.0889 82.457 42.0332 82.4294 41.9774C82.4018 41.9217 82.3466 41.8938 82.2639 41.8659C82.1811 41.8381 82.0431 41.8381 81.7948 41.8381H81.3533V41.8659ZM83.478 42.9809V40.4723H85.3819V40.8904H83.9746V41.4478H85.2715V41.8659H83.9746V42.5628H85.4095V42.9809H83.478ZM85.9062 42.9809V40.4723H86.4304V41.4757H87.4514V40.4723H87.9756V42.9809H87.4514V41.8659H86.4304V42.9809H85.9062ZM88.5551 42.9809V40.4723H89.0794V41.4757H90.1003V40.4723H90.6246V42.9809H90.1003V41.8659H89.0794V42.9809H88.5551ZM91.2316 40.4444H91.7559V41.4478H92.4457C92.6389 41.4478 92.7768 41.4757 92.9148 41.5315C93.0528 41.5872 93.1631 41.6708 93.2459 41.7823C93.3287 41.8938 93.3839 42.0611 93.3839 42.2283C93.3839 42.3955 93.3287 42.5349 93.2459 42.6743C93.1631 42.7858 93.0528 42.8694 92.9424 42.9251C92.832 42.953 92.6665 42.9809 92.4457 42.9809H91.2316V40.4444ZM91.7559 42.5349H92.2526C92.4181 42.5349 92.5285 42.5349 92.5837 42.507C92.6389 42.4792 92.6941 42.4513 92.7492 42.3955C92.8044 42.3398 92.832 42.284 92.832 42.2004C92.832 42.0889 92.8044 42.0053 92.7217 41.9496C92.6389 41.8938 92.5009 41.8659 92.2802 41.8659H91.7559V42.5349ZM93.6874 40.4444H94.2117V42.953H93.6874V40.4444ZM94.7911 40.4444H95.2878V42.1168L96.3364 40.4444H96.8606V42.953H96.3639V41.3363L95.3154 42.9809H94.7911V40.4444ZM96.1156 39.8312H96.3639C96.3364 39.9984 96.2812 40.1099 96.1984 40.1935C96.1156 40.2771 95.9776 40.3329 95.8121 40.3329C95.6465 40.3329 95.5362 40.2771 95.4258 40.1935C95.3154 40.1099 95.2602 39.9705 95.2602 39.8312H95.5086C95.5086 39.9148 95.5361 39.9705 95.5913 40.0263C95.6465 40.082 95.7017 40.082 95.8121 40.082C95.8949 40.082 95.9776 40.0542 96.0328 40.0263C96.088 39.9984 96.1156 39.9148 96.1156 39.8312ZM31.6305 46.5766V44.486H30.8578V44.0679H32.8997V44.486H32.1271V46.5766H31.6305ZM33.286 46.5766V44.0679H35.19V44.486H33.7827V45.0435H35.0796V45.4616H33.7827V46.1584H35.2176V46.5766H33.286ZM35.4659 46.5766L36.3489 45.2665L35.5487 44.0679H36.1557L36.68 44.8763L37.1767 44.0679H37.7837L36.9835 45.2944L37.8665 46.5766H37.2319L36.6524 45.7125L36.0729 46.5766H35.4659ZM38.1976 46.5766V44.0679H38.7219V45.0714H39.7428V44.0679H40.2671V46.5766H39.7428V45.4616H38.7219V46.5766H38.1976ZM40.7362 45.3501C40.7362 45.0993 40.7638 44.8763 40.8466 44.709C40.9017 44.5697 40.9845 44.4582 41.0949 44.3745C41.2053 44.2631 41.3156 44.2073 41.426 44.1516C41.5916 44.0958 41.7847 44.0401 41.9779 44.0401C42.3642 44.0401 42.6677 44.1516 42.8885 44.3745C43.1092 44.5975 43.2196 44.932 43.2196 45.3222C43.2196 45.7403 43.1092 46.047 42.8885 46.2699C42.6677 46.4929 42.3642 46.6044 41.9779 46.6044C41.5916 46.6044 41.288 46.4929 41.0673 46.2699C40.8466 46.0748 40.7362 45.7403 40.7362 45.3501V45.3501ZM41.2605 45.3222C41.2605 45.601 41.3156 45.824 41.4536 45.9633C41.5916 46.1027 41.7571 46.1863 41.9779 46.1863C42.1986 46.1863 42.3642 46.1027 42.5021 45.9633C42.6401 45.824 42.6953 45.601 42.6953 45.2944C42.6953 45.0156 42.6401 44.7926 42.5021 44.6533C42.3642 44.5139 42.1986 44.4303 41.9779 44.4303C41.7571 44.4303 41.5916 44.5139 41.4536 44.6533C41.3156 44.8205 41.2605 45.0435 41.2605 45.3222ZM43.7714 44.0679H45.5926V46.5766H45.0683V44.486H44.2957V45.5731C44.2957 45.8797 44.2957 46.1027 44.2681 46.2142C44.2405 46.3257 44.1853 46.4372 44.1025 46.4929C44.0198 46.5487 43.8818 46.6044 43.7162 46.6044C43.6611 46.6044 43.5507 46.6044 43.3851 46.5766V46.1863H43.4955C43.6059 46.1863 43.6887 46.1584 43.7162 46.1306C43.7438 46.1027 43.7714 46.0191 43.7714 45.9076V45.4616V44.0679ZM46.0617 45.3501C46.0617 45.0993 46.0893 44.8763 46.172 44.709C46.2272 44.5697 46.31 44.4582 46.4204 44.3745C46.5307 44.2631 46.6411 44.2073 46.7515 44.1516C46.917 44.0958 47.1102 44.0401 47.3034 44.0401C47.6897 44.0401 47.9932 44.1516 48.2139 44.3745C48.4347 44.5975 48.545 44.932 48.545 45.3222C48.545 45.7403 48.4347 46.047 48.2139 46.2699C47.9932 46.4929 47.6897 46.6044 47.3034 46.6044C46.917 46.6044 46.6135 46.4929 46.3928 46.2699C46.172 46.0748 46.0617 45.7403 46.0617 45.3501V45.3501ZM46.5859 45.3222C46.5859 45.601 46.6411 45.824 46.7791 45.9633C46.917 46.1027 47.0826 46.1863 47.3034 46.1863C47.5241 46.1863 47.6897 46.1027 47.8276 45.9633C47.9656 45.824 48.0208 45.601 48.0208 45.2944C48.0208 45.0156 47.9656 44.7926 47.8276 44.6533C47.6897 44.5139 47.5241 44.4303 47.3034 44.4303C47.0826 44.4303 46.917 44.5139 46.7791 44.6533C46.6411 44.8205 46.5859 45.0435 46.5859 45.3222ZM49.0141 44.0679H50.7525V44.486H49.5108V46.5766H49.0141V44.0679ZM51.0836 44.0679H51.5803V45.7403L52.6288 44.0679H53.1531V46.5766H52.6564V44.932L51.6079 46.5766H51.0836V44.0679ZM53.6774 44.0679H54.2016V44.6812C54.2016 44.8763 54.2016 45.0156 54.2292 45.0714C54.2568 45.1271 54.2844 45.1829 54.3672 45.2386C54.45 45.2944 54.5603 45.3222 54.6983 45.3222C54.8087 45.3222 54.9191 45.3222 55.0018 45.2944C55.0846 45.2665 55.1674 45.2386 55.2226 45.1829V44.0958H55.7468V46.6044H55.2226V45.601C55.1122 45.6567 55.0018 45.6846 54.9191 45.7125C54.8087 45.7403 54.7259 45.7403 54.6155 45.7403C54.3672 45.7403 54.1464 45.6846 53.9809 45.5731C53.8153 45.4616 53.7326 45.2386 53.7326 44.9599V44.0679H53.6774ZM56.2987 46.5766V44.0679H58.2026V44.486H56.7954V45.0435H58.0923V45.4616H56.7954V46.1584H58.2302V46.5766H56.2987ZM60.3825 45.6567L60.8792 45.824C60.7964 46.1027 60.686 46.2978 60.4929 46.4372C60.2997 46.5766 60.079 46.6323 59.803 46.6323C59.4719 46.6323 59.1684 46.5208 58.9477 46.2978C58.7269 46.0748 58.6165 45.7682 58.6165 45.3501C58.6165 44.932 58.7269 44.5975 58.9477 44.3745C59.1684 44.1516 59.4719 44.0401 59.8306 44.0401C60.1342 44.0401 60.4101 44.1237 60.6032 44.3188C60.7136 44.4303 60.7964 44.5697 60.8792 44.7926L60.3549 44.9041C60.3273 44.7648 60.2721 44.6812 60.1618 44.5975C60.0514 44.5139 59.941 44.486 59.803 44.486C59.6099 44.486 59.4443 44.5418 59.334 44.6812C59.2236 44.8205 59.1684 45.0435 59.1684 45.3222C59.1684 45.6289 59.2236 45.8797 59.334 45.9912C59.4443 46.1306 59.6099 46.1863 59.803 46.1863C59.941 46.1863 60.0514 46.1306 60.1618 46.047C60.2721 45.9912 60.3549 45.8518 60.3825 45.6567V45.6567ZM61.4034 44.0679H61.9277V45.1271C62.0381 45.1271 62.1209 45.0993 62.1761 45.0435C62.2036 44.9878 62.2864 44.8763 62.3692 44.6533C62.4796 44.3745 62.59 44.2073 62.7003 44.1516C62.8107 44.0958 62.9763 44.0401 63.2246 44.0401C63.2246 44.0401 63.2522 44.0401 63.3074 44.0401V44.4024H63.2246C63.1142 44.4024 63.0314 44.4024 63.0038 44.4303C62.9487 44.4582 62.9211 44.486 62.8935 44.5418C62.8659 44.5975 62.8107 44.709 62.7555 44.8763C62.7279 44.9599 62.7003 45.0435 62.6451 45.0993C62.6175 45.155 62.5348 45.2108 62.452 45.2665C62.5624 45.2944 62.6727 45.3501 62.7279 45.4616C62.7831 45.5731 62.8935 45.6846 62.9763 45.8797L63.335 46.5766H62.7279L62.4244 45.9355C62.4244 45.9355 62.3968 45.9076 62.3968 45.8797C62.3968 45.8797 62.3692 45.824 62.3416 45.7682C62.2864 45.6567 62.2312 45.5731 62.1761 45.5452C62.1209 45.5174 62.0657 45.4895 61.9829 45.4895V46.6044H61.4586V44.0679H61.4034ZM63.6385 44.0679H64.1352V45.7403L65.1837 44.0679H65.708V46.5766H65.2113V44.932L64.1628 46.5766H63.6385V44.0679ZM66.2598 44.0679H66.7565V45.7403L67.8051 44.0679H68.3293V46.5766H67.8326V44.932L66.7841 46.5766H66.2598V44.0679ZM67.6119 43.4547H67.8602C67.8326 43.622 67.7775 43.7335 67.6947 43.8171C67.6119 43.9007 67.4739 43.9564 67.3084 43.9564C67.1428 43.9564 67.0324 43.9007 66.9221 43.8171C66.8117 43.7335 66.7565 43.5941 66.7565 43.4547H67.0049C67.0049 43.5383 67.0324 43.5941 67.0876 43.6498C67.1428 43.6777 67.198 43.7056 67.3084 43.7056C67.3912 43.7056 67.4739 43.6777 67.5291 43.6498C67.5567 43.5941 67.5843 43.5105 67.6119 43.4547ZM69.7918 44.0679H70.3712L70.9783 45.378L71.5025 44.0679H72.0544L71.1714 45.9912C71.0886 46.1863 70.9783 46.3536 70.8679 46.4651C70.7575 46.5765 70.6471 46.6323 70.4816 46.6323C70.316 46.6323 70.2057 46.6323 70.1229 46.6044V46.2142C70.2057 46.2142 70.2608 46.2142 70.316 46.2142C70.4264 46.2142 70.5368 46.1863 70.5644 46.1584C70.6196 46.1027 70.6747 46.0191 70.7023 45.8797L69.7918 44.0679ZM72.3303 46.5766V44.0679H72.8546V45.0714H73.8755V44.0679H74.3998V46.5766H73.8755V45.4616H72.8546V46.5766H72.3303ZM74.9793 44.0679H75.4759V45.7403L76.5245 44.0679H77.0488V46.5766H76.5521V44.932L75.5035 46.5766H74.9793V44.0679ZM77.6282 44.0679H78.6492C78.8423 44.0679 79.0079 44.0679 79.1182 44.0958C79.2286 44.1237 79.3114 44.1516 79.3942 44.2073C79.4769 44.2631 79.5321 44.3188 79.5873 44.4303C79.6425 44.5139 79.6701 44.6254 79.6701 44.7369C79.6701 44.8484 79.6425 44.9599 79.5597 45.0714C79.477 45.1829 79.3942 45.2386 79.2838 45.2944C79.4494 45.3501 79.5597 45.4059 79.6425 45.5174C79.7253 45.6289 79.7805 45.7403 79.7805 45.9076C79.7805 46.0191 79.7529 46.1306 79.6977 46.2421C79.6425 46.3536 79.5597 46.4372 79.4769 46.4929C79.3942 46.5487 79.2562 46.6044 79.1182 46.6044C79.0355 46.6044 78.8147 46.6323 78.4836 46.6323H77.6006V44.0679H77.6282ZM78.1249 44.486V45.0714H78.456C78.6492 45.0714 78.7871 45.0714 78.8423 45.0714C78.9251 45.0714 79.0079 45.0435 79.063 44.9878C79.1182 44.932 79.1458 44.8763 79.1458 44.7926C79.1458 44.709 79.1182 44.6533 79.0906 44.5975C79.0355 44.5418 78.9803 44.5139 78.8975 44.5139C78.8423 44.5139 78.7043 44.5139 78.456 44.5139H78.1249V44.486ZM78.1249 45.4895V46.1584H78.6216C78.8147 46.1584 78.9251 46.1584 78.9803 46.1306C79.0631 46.1306 79.1182 46.0748 79.1734 46.0191C79.2286 45.9633 79.2562 45.9076 79.2562 45.7961C79.2562 45.7125 79.2286 45.6567 79.201 45.601C79.1734 45.5452 79.1182 45.5174 79.0355 45.4895C78.9527 45.4616 78.8147 45.4616 78.5664 45.4616H78.1249V45.4895ZM80.2496 46.5766V44.0679H82.1535V44.486H80.7462V45.0435H82.0431V45.4616H80.7462V46.1584H82.1811V46.5766H80.2496ZM82.7053 46.5766V44.0679H83.5331C83.8643 44.0679 84.0574 44.0679 84.1402 44.0958C84.2781 44.1237 84.4161 44.2073 84.4989 44.3467C84.6093 44.486 84.6369 44.6254 84.6369 44.8484C84.6369 45.0156 84.6093 45.1271 84.5541 45.2386C84.4989 45.3501 84.4161 45.4337 84.3333 45.4895C84.2506 45.5452 84.1402 45.601 84.0574 45.601C83.9194 45.6289 83.7539 45.6289 83.5055 45.6289H83.2296V46.5766H82.7053ZM83.2296 44.486V45.2107H83.5055C83.6987 45.2107 83.8367 45.2108 83.9194 45.1829C84.0022 45.155 84.0298 45.1271 84.085 45.0714C84.1126 45.0156 84.1402 44.9599 84.1402 44.8763C84.1402 44.7926 84.1126 44.709 84.0574 44.6533C84.0022 44.5975 83.9194 44.5697 83.8367 44.5418C83.7815 44.5418 83.6435 44.5139 83.4504 44.5139H83.2296V44.486ZM86.7064 45.6567L87.203 45.824C87.1202 46.1027 87.0099 46.2978 86.8167 46.4372C86.6236 46.5766 86.4028 46.6323 86.1269 46.6323C85.7958 46.6323 85.4922 46.5208 85.2715 46.2978C85.0508 46.0748 84.9404 45.7682 84.9404 45.3501C84.9404 44.932 85.0508 44.5975 85.2715 44.3745C85.4922 44.1516 85.7958 44.0401 86.1545 44.0401C86.458 44.0401 86.7339 44.1237 86.9271 44.3188C87.0375 44.4303 87.1202 44.5697 87.203 44.7926L86.6788 44.9041C86.6512 44.7648 86.596 44.6812 86.4856 44.5975C86.3752 44.5139 86.2649 44.486 86.1269 44.486C85.9337 44.486 85.7682 44.5418 85.6578 44.6812C85.5474 44.8205 85.4923 45.0435 85.4923 45.3222C85.4923 45.6289 85.5474 45.8797 85.6578 45.9912C85.7682 46.1306 85.9337 46.1863 86.1269 46.1863C86.2649 46.1863 86.3752 46.1306 86.4856 46.047C86.596 45.9912 86.6788 45.8518 86.7064 45.6567V45.6567ZM87.6997 44.0679H88.1964V45.7403L89.2449 44.0679H89.7692V46.5766H89.2725V44.932L88.224 46.5766H87.6997V44.0679ZM90.9281 46.5766V44.486H90.1555V44.0679H92.1974V44.486H91.4248V46.5766H90.9281ZM92.5837 46.5766V44.0679H94.4876V44.486H93.0804V45.0435H94.3772V45.4616H93.0804V46.1584H94.5152V46.5766H92.5837ZM95.6189 46.5766V44.486H94.8463V44.0679H96.8882V44.486H96.1156V46.5766H95.6189Z" fill="#1D1D1B"/>
<path fill-rule="evenodd" clip-rule="evenodd" d="M60.2997 7.77669L54.2016 8.94738C51.4699 8.05543 48.7106 8.0833 45.9789 8.72439V26.0617H44.8476V8.0833H39.0254V26.0338H36.68V9.72784L29.3126 3.53993V46.6323H25.3116L25.422 11.902L18.9652 10.1459V46.5208H15.0746L14.9642 22.6332C8.81093 27.2324 3.92694 33.7826 2.1058 39.6918C0.615767 44.4582 1.80227 50.1165 5.61012 51.9561C11.2943 54.6877 20.0137 53.6007 27.933 51.4265C31.6029 50.4231 36.1557 48.026 37.4802 47.3013H42.0331C40.5982 48.1653 32.1823 53.0711 21.0347 54.5484C13.6949 55.4961 5.27901 54.6041 1.91264 49.8935C-4.01988 41.6151 4.83752 27.6226 14.9366 19.8738V9.61634L18.9376 7.6652L25.1737 9.61634L29.3678 0L36.542 5.79768L36.7352 8.5014L38.9978 5.99279C46.0892 5.29596 53.1255 4.90573 60.079 6.7175L60.2997 7.77669ZM52.077 39.0507V37.4341H51.6079C50.9732 37.9915 50.311 38.549 49.566 39.1343C49.2901 39.3573 49.0141 39.5803 48.7382 39.8033H53.1531C53.429 39.5524 53.705 39.3016 53.9809 39.0507H52.077ZM66.7565 15.0238L63.0314 12.8497L62.2036 13.3235C62.2036 13.3235 64.5215 16.1666 62.7003 22.1594C61.9001 24.7795 60.2721 27.0094 60.2721 27.0094V31.1347H61.3758C61.6518 30.828 62.2036 30.0476 62.3692 29.7131V27.1766H64.1627C64.1627 27.1766 65.3493 25.5042 66.2874 21.6019C67.0324 18.3407 66.7565 15.0238 66.7565 15.0238V15.0238Z" fill="#274193"/>
</svg>
