<svg width="212" height="212" viewBox="0 0 212 212" fill="none" xmlns="http://www.w3.org/2000/svg">
<rect x="0.5" y="0.5" width="211" height="211" rx="3.5" fill="#F4F5FA" stroke="#A9B3D4"/>
<g clip-path="url(#clip0_66_200)">
<path d="M88.4711 106.549C86.3925 106.549 84.6218 107.196 83.159 108.454C81.5808 109.825 80.8109 111.54 80.8109 113.673C80.8109 115.807 81.5808 117.559 83.159 118.893C84.6218 120.15 86.431 120.798 88.5096 120.798H89.5105V117.369H88.7406C87.6243 117.369 86.6619 117.064 85.8151 116.416C84.8912 115.73 84.4293 114.816 84.4293 113.673C84.4293 112.53 84.8912 111.616 85.7766 110.93C86.6235 110.32 87.5858 109.977 88.7406 109.977H95.5925V120.798H99.2494V109.977H105.601L108.988 106.549H88.4711ZM111.952 106.549L101.136 116.111V121.141L111.952 111.616V115.388H108.873L104.946 118.893H111.914V120.798H115.802V106.549H111.952ZM126.31 106.549V111.959H121.422V106.206L117.572 109.635V120.798H121.422V115.388H126.31V120.798H130.16V106.549H126.31ZM146.904 106.549H141.785L135.472 112.378V106.244L131.738 109.673V120.798H135.472V117.369L137.166 115.807L142.978 121.102V116.15L139.899 113.292L146.904 106.549ZM169.693 106.129V111.882H164.881V106.472H161.07V117.369H159.261V106.549H156.027L149.522 112.53V106.282L145.75 109.711V121.102L155.489 112.225V120.836L164.881 120.76V115.349H169.693V120.76H173.504V109.558L169.693 106.129ZM123.731 74.5072L126.811 80.1459L133.586 79.3077L127.812 82.3556L130.506 86.8132L125.656 84.5273L120.536 89.9754L122.692 83.4224L110.413 82.6604L123.346 80.2602L123.731 74.5072Z" fill="#D3043A"/>
<path d="M81.6578 127.16V123.731H82.7356L83.39 126.093L84.0444 123.731H85.1222V127.16H84.4293V124.455L83.6979 127.16H83.005L82.2737 124.455V127.16H81.6578ZM85.7381 125.446C85.7381 125.103 85.7766 124.798 85.8921 124.569C85.969 124.379 86.0845 124.227 86.2385 124.112C86.3925 123.96 86.5464 123.884 86.7004 123.807C86.9314 123.731 87.2008 123.655 87.4703 123.655C88.0092 123.655 88.4326 123.807 88.7406 124.112C89.0485 124.417 89.2025 124.874 89.2025 125.408C89.2025 125.979 89.0485 126.398 88.7406 126.703C88.4326 127.008 88.0092 127.16 87.4703 127.16C86.9314 127.16 86.508 127.008 86.2 126.703C85.9306 126.436 85.7381 125.979 85.7381 125.446V125.446ZM86.508 125.408C86.508 125.789 86.5849 126.093 86.7774 126.284C86.9699 126.474 87.2008 126.589 87.5088 126.589C87.8167 126.589 88.0477 126.474 88.2402 126.284C88.4326 126.093 88.5096 125.789 88.5096 125.37C88.5096 124.989 88.4326 124.684 88.2402 124.493C88.0477 124.303 87.8167 124.188 87.5088 124.188C87.2008 124.188 86.9699 124.303 86.7774 124.493C86.5849 124.722 86.508 125.027 86.508 125.408ZM92.1665 125.865L92.8594 126.093C92.7439 126.474 92.5899 126.741 92.3205 126.932C92.051 127.122 91.7431 127.198 91.3582 127.198C90.8962 127.198 90.4728 127.046 90.1648 126.741C89.8569 126.436 89.7029 126.017 89.7029 125.446C89.7029 124.874 89.8569 124.417 90.1648 124.112C90.4728 123.807 90.8962 123.655 91.3966 123.655C91.8201 123.655 92.205 123.769 92.4745 124.036C92.6284 124.188 92.7439 124.379 92.8594 124.684L92.128 124.836C92.0895 124.646 92.0125 124.531 91.8586 124.417C91.7046 124.303 91.5506 124.265 91.3582 124.265C91.0887 124.265 90.8577 124.341 90.7038 124.531C90.5498 124.722 90.4728 125.027 90.4728 125.408C90.4728 125.827 90.5498 126.17 90.7038 126.322C90.8577 126.512 91.0887 126.589 91.3582 126.589C91.5506 126.589 91.7046 126.512 91.8586 126.398C92.0125 126.322 92.128 126.132 92.1665 125.865V125.865ZM93.5908 123.693H94.3222V125.141C94.4761 125.141 94.5916 125.103 94.6686 125.027C94.7071 124.95 94.8226 124.798 94.9381 124.493C95.092 124.112 95.246 123.884 95.4 123.807C95.554 123.731 95.7849 123.655 96.1314 123.655C96.1314 123.655 96.1699 123.655 96.2468 123.655V124.15H96.1314C95.9774 124.15 95.8619 124.15 95.7849 124.188C95.7079 124.227 95.6694 124.265 95.6309 124.341C95.5924 124.417 95.5155 124.569 95.4385 124.798C95.4 124.912 95.3615 125.027 95.2845 125.103C95.246 125.179 95.1305 125.255 95.015 125.331C95.169 125.37 95.323 125.446 95.4 125.598C95.5155 125.712 95.6309 125.903 95.7464 126.17L96.2468 127.122H95.4L94.9765 126.246C94.9765 126.246 94.9381 126.208 94.9381 126.17C94.9381 126.17 94.8996 126.093 94.8611 126.017C94.7841 125.865 94.7071 125.751 94.6301 125.712C94.5531 125.674 94.4761 125.636 94.3606 125.636V127.16H93.6293V123.693H93.5908ZM96.5548 125.446C96.5548 125.103 96.5933 124.798 96.7088 124.569C96.7857 124.379 96.9012 124.227 97.0552 124.112C97.2092 123.96 97.3632 123.884 97.5171 123.807C97.7481 123.731 98.0175 123.655 98.287 123.655C98.8259 123.655 99.2493 123.807 99.5573 124.112C99.8652 124.417 100.019 124.874 100.019 125.408C100.019 125.979 99.8652 126.398 99.5573 126.703C99.2493 127.008 98.8259 127.16 98.287 127.16C97.7481 127.16 97.3247 127.008 97.0167 126.703C96.7088 126.436 96.5548 125.979 96.5548 125.446V125.446ZM97.2862 125.408C97.2862 125.789 97.3632 126.093 97.5556 126.284C97.7481 126.474 97.9791 126.589 98.287 126.589C98.5949 126.589 98.8259 126.474 99.0184 126.284C99.2108 126.093 99.2878 125.789 99.2878 125.37C99.2878 124.989 99.2108 124.684 99.0184 124.493C98.8259 124.303 98.5949 124.188 98.287 124.188C97.9791 124.188 97.7481 124.303 97.5556 124.493C97.4016 124.722 97.2862 125.027 97.2862 125.408ZM100.674 123.693H102.098C102.367 123.693 102.598 123.693 102.752 123.731C102.906 123.769 103.022 123.807 103.137 123.884C103.253 123.96 103.33 124.036 103.407 124.188C103.484 124.303 103.522 124.455 103.522 124.608C103.522 124.76 103.484 124.912 103.368 125.065C103.291 125.217 103.137 125.293 102.983 125.37C103.214 125.446 103.368 125.522 103.484 125.674C103.599 125.827 103.676 125.979 103.676 126.208C103.676 126.36 103.638 126.512 103.561 126.665C103.484 126.817 103.368 126.932 103.253 127.008C103.137 127.084 102.945 127.16 102.752 127.16C102.637 127.16 102.329 127.198 101.867 127.198H100.635V123.693H100.674ZM101.405 124.265V125.065H101.867C102.136 125.065 102.329 125.065 102.406 125.065C102.521 125.065 102.637 125.027 102.714 124.95C102.791 124.874 102.829 124.798 102.829 124.684C102.829 124.569 102.791 124.493 102.752 124.417C102.675 124.341 102.598 124.303 102.483 124.303C102.406 124.303 102.213 124.303 101.867 124.303H101.405V124.265ZM101.405 125.636V126.551H102.098C102.367 126.551 102.521 126.551 102.598 126.512C102.714 126.512 102.791 126.436 102.868 126.36C102.945 126.284 102.983 126.208 102.983 126.055C102.983 125.941 102.945 125.865 102.906 125.789C102.868 125.712 102.791 125.674 102.675 125.636C102.56 125.598 102.367 125.598 102.021 125.598H101.405V125.636ZM106.448 125.865L107.141 126.093C107.025 126.474 106.871 126.741 106.602 126.932C106.332 127.122 106.024 127.198 105.639 127.198C105.177 127.198 104.754 127.046 104.446 126.741C104.138 126.436 103.984 126.017 103.984 125.446C103.984 124.874 104.138 124.417 104.446 124.112C104.754 123.807 105.177 123.655 105.678 123.655C106.101 123.655 106.486 123.769 106.756 124.036C106.91 124.188 107.025 124.379 107.141 124.684L106.409 124.836C106.371 124.646 106.294 124.531 106.14 124.417C105.986 124.303 105.832 124.265 105.639 124.265C105.37 124.265 105.139 124.341 104.985 124.531C104.831 124.722 104.754 125.027 104.754 125.408C104.754 125.827 104.831 126.17 104.985 126.322C105.139 126.512 105.37 126.589 105.639 126.589C105.832 126.589 105.986 126.512 106.14 126.398C106.294 126.322 106.409 126.132 106.448 125.865V125.865ZM107.872 123.693H108.603V125.141C108.757 125.141 108.873 125.103 108.95 125.027C108.988 124.95 109.104 124.798 109.219 124.493C109.373 124.112 109.527 123.884 109.681 123.807C109.835 123.731 110.066 123.655 110.412 123.655C110.412 123.655 110.451 123.655 110.528 123.655V124.15H110.412C110.259 124.15 110.143 124.15 110.066 124.188C109.989 124.227 109.951 124.265 109.912 124.341C109.874 124.417 109.797 124.569 109.72 124.798C109.681 124.912 109.643 125.027 109.566 125.103C109.527 125.179 109.412 125.255 109.296 125.331C109.45 125.37 109.604 125.446 109.681 125.598C109.797 125.712 109.912 125.903 110.028 126.17L110.528 127.122H109.681L109.258 126.246C109.258 126.246 109.219 126.208 109.219 126.17C109.219 126.17 109.181 126.093 109.142 126.017C109.065 125.865 108.988 125.751 108.911 125.712C108.834 125.674 108.757 125.636 108.642 125.636V127.16H107.872V123.693ZM110.99 123.693H111.683V125.979L113.146 123.693H113.877V127.122H113.184V124.912L111.721 127.16H110.99V123.693ZM114.647 123.693H115.34V125.979L116.802 123.693H117.534V127.122H116.841V124.912L115.378 127.16H114.647V123.693ZM116.533 122.855H116.879C116.841 123.084 116.764 123.236 116.648 123.35C116.494 123.465 116.34 123.541 116.11 123.541C115.879 123.541 115.725 123.465 115.571 123.35C115.417 123.236 115.34 123.045 115.34 122.855H115.686C115.686 122.969 115.725 123.045 115.802 123.122C115.879 123.16 115.956 123.198 116.11 123.198C116.225 123.198 116.341 123.16 116.417 123.122C116.494 123.084 116.533 122.969 116.533 122.855ZM120.344 123.693H122.769V124.265H121.037V127.122H120.305V123.693H120.344ZM123 125.446C123 125.103 123.038 124.798 123.154 124.569C123.231 124.379 123.346 124.227 123.5 124.112C123.654 123.96 123.808 123.884 123.962 123.807C124.193 123.731 124.463 123.655 124.732 123.655C125.271 123.655 125.694 123.807 126.002 124.112C126.31 124.417 126.464 124.874 126.464 125.408C126.464 125.979 126.31 126.398 126.002 126.703C125.694 127.008 125.271 127.16 124.732 127.16C124.193 127.16 123.77 127.008 123.462 126.703C123.154 126.436 123 125.979 123 125.446V125.446ZM123.77 125.408C123.77 125.789 123.847 126.093 124.039 126.284C124.232 126.474 124.463 126.589 124.771 126.589C125.079 126.589 125.31 126.474 125.502 126.284C125.694 126.093 125.771 125.789 125.771 125.37C125.771 124.989 125.694 124.684 125.502 124.493C125.31 124.303 125.079 124.188 124.771 124.188C124.463 124.188 124.232 124.303 124.039 124.493C123.847 124.722 123.77 125.027 123.77 125.408ZM129.428 125.865L130.121 126.093C130.006 126.474 129.852 126.741 129.582 126.932C129.313 127.122 129.005 127.198 128.62 127.198C128.158 127.198 127.735 127.046 127.427 126.741C127.119 126.436 126.965 126.017 126.965 125.446C126.965 124.874 127.119 124.417 127.427 124.112C127.735 123.807 128.158 123.655 128.658 123.655C129.082 123.655 129.467 123.769 129.736 124.036C129.89 124.188 130.006 124.379 130.121 124.684L129.39 124.836C129.351 124.646 129.274 124.531 129.12 124.417C128.966 124.303 128.812 124.265 128.62 124.265C128.351 124.265 128.12 124.341 127.966 124.531C127.812 124.722 127.735 125.027 127.735 125.408C127.735 125.827 127.812 126.17 127.966 126.322C128.12 126.512 128.351 126.589 128.62 126.589C128.812 126.589 128.966 126.512 129.12 126.398C129.274 126.322 129.39 126.132 129.428 125.865V125.865ZM130.391 123.693H131.199L132.046 125.484L132.777 123.693H133.547L132.315 126.322C132.2 126.589 132.046 126.817 131.892 126.97C131.738 127.122 131.584 127.198 131.353 127.198C131.122 127.198 130.968 127.198 130.853 127.16V126.627C130.968 126.627 131.045 126.627 131.122 126.627C131.276 126.627 131.43 126.589 131.468 126.551C131.545 126.474 131.622 126.36 131.661 126.17L130.391 123.693ZM133.971 123.693H136.473V126.551H136.781V127.884H136.165V127.122H133.894V127.884H133.278V126.551H133.586C133.74 126.246 133.817 125.903 133.894 125.522C133.932 125.141 133.971 124.646 133.971 124.036V123.693ZM134.663 124.265C134.663 125.293 134.548 126.055 134.356 126.551H135.741V124.265H134.663ZM140.668 127.16H139.86L139.552 126.36H138.128L137.82 127.16H137.05L138.474 123.731H139.244L140.668 127.16ZM139.36 125.789L138.859 124.493L138.359 125.789H139.36ZM141.13 127.16V123.731H142.285C142.747 123.731 143.017 123.731 143.132 123.769C143.325 123.807 143.517 123.922 143.632 124.112C143.786 124.303 143.825 124.493 143.825 124.798C143.825 125.027 143.786 125.179 143.709 125.331C143.632 125.484 143.517 125.598 143.401 125.674C143.286 125.751 143.132 125.827 143.017 125.827C142.824 125.865 142.593 125.865 142.247 125.865H141.785V127.16H141.13ZM141.862 124.265V125.255H142.247C142.516 125.255 142.709 125.255 142.824 125.217C142.94 125.179 142.978 125.141 143.055 125.065C143.094 124.989 143.132 124.912 143.132 124.798C143.132 124.684 143.094 124.569 143.017 124.493C142.94 124.417 142.824 124.379 142.709 124.341C142.632 124.341 142.439 124.303 142.17 124.303H141.862V124.265ZM146.712 125.865L147.405 126.093C147.289 126.474 147.135 126.741 146.866 126.932C146.596 127.122 146.289 127.198 145.904 127.198C145.442 127.198 145.018 127.046 144.71 126.741C144.402 126.436 144.248 126.017 144.248 125.446C144.248 124.874 144.402 124.417 144.71 124.112C145.018 123.807 145.442 123.655 145.942 123.655C146.366 123.655 146.75 123.769 147.02 124.036C147.174 124.188 147.289 124.379 147.405 124.684L146.673 124.836C146.635 124.646 146.558 124.531 146.404 124.417C146.25 124.303 146.096 124.265 145.904 124.265C145.634 124.265 145.403 124.341 145.249 124.531C145.095 124.722 145.018 125.027 145.018 125.408C145.018 125.827 145.095 126.17 145.249 126.322C145.403 126.512 145.634 126.589 145.904 126.589C146.096 126.589 146.25 126.512 146.404 126.398C146.558 126.322 146.635 126.132 146.712 125.865V125.865ZM148.791 127.16V124.303H147.713V123.731H150.561V124.303H149.483V127.16H148.791ZM151.1 123.693H152.524C152.794 123.693 153.025 123.693 153.179 123.731C153.333 123.769 153.448 123.807 153.564 123.884C153.679 123.96 153.756 124.036 153.833 124.188C153.91 124.303 153.949 124.455 153.949 124.608C153.949 124.76 153.91 124.912 153.795 125.065C153.718 125.217 153.564 125.293 153.41 125.37C153.641 125.446 153.795 125.522 153.91 125.674C154.026 125.827 154.103 125.979 154.103 126.208C154.103 126.36 154.064 126.512 153.987 126.665C153.91 126.817 153.795 126.932 153.679 127.008C153.564 127.084 153.371 127.16 153.179 127.16C153.063 127.16 152.755 127.198 152.294 127.198H151.062V123.693H151.1ZM151.832 124.265V125.065H152.294C152.563 125.065 152.755 125.065 152.832 125.065C152.948 125.065 153.063 125.027 153.14 124.95C153.217 124.874 153.256 124.798 153.256 124.684C153.256 124.569 153.217 124.493 153.179 124.417C153.102 124.341 153.025 124.303 152.909 124.303C152.832 124.303 152.64 124.303 152.294 124.303H151.832V124.265ZM151.832 125.636V126.551H152.524C152.794 126.551 152.948 126.551 153.025 126.512C153.14 126.512 153.217 126.436 153.294 126.36C153.371 126.284 153.41 126.208 153.41 126.055C153.41 125.941 153.371 125.865 153.333 125.789C153.294 125.712 153.217 125.674 153.102 125.636C152.986 125.598 152.794 125.598 152.447 125.598H151.832V125.636ZM154.796 127.16V123.731H157.452V124.303H155.488V125.065H157.298V125.636H155.488V126.589H157.49V127.16H154.796ZM158.183 127.16V123.731H158.914V125.103H160.339V123.731H161.07V127.16H160.339V125.636H158.914V127.16H158.183ZM161.878 127.16V123.731H162.61V125.103H164.034V123.731H164.765V127.16H164.034V125.636H162.61V127.16H161.878ZM165.612 123.693H166.344V125.065H167.306C167.575 125.065 167.768 125.103 167.96 125.179C168.153 125.255 168.307 125.37 168.422 125.522C168.538 125.674 168.615 125.903 168.615 126.132C168.615 126.36 168.538 126.551 168.422 126.741C168.307 126.893 168.153 127.008 167.999 127.084C167.845 127.122 167.614 127.16 167.306 127.16H165.612V123.693ZM166.344 126.551H167.037C167.268 126.551 167.422 126.551 167.498 126.512C167.575 126.474 167.652 126.436 167.729 126.36C167.806 126.284 167.845 126.208 167.845 126.093C167.845 125.941 167.806 125.827 167.691 125.751C167.575 125.674 167.383 125.636 167.075 125.636H166.344V126.551ZM169.038 123.693H169.77V127.122H169.038V123.693ZM170.578 123.693H171.271V125.979L172.734 123.693H173.465V127.122H172.772V124.912L171.309 127.16H170.578V123.693ZM172.426 122.855H172.772C172.734 123.084 172.657 123.236 172.541 123.35C172.426 123.465 172.233 123.541 172.002 123.541C171.771 123.541 171.617 123.465 171.463 123.35C171.309 123.236 171.232 123.045 171.232 122.855H171.579C171.579 122.969 171.617 123.045 171.694 123.122C171.771 123.198 171.848 123.198 172.002 123.198C172.118 123.198 172.233 123.16 172.31 123.122C172.387 123.084 172.426 122.969 172.426 122.855ZM82.4661 132.075V129.218H81.3883V128.646H84.2368V129.218H83.159V132.075H82.4661ZM84.7757 132.075V128.646H87.4318V129.218H85.4686V129.98H87.2778V130.551H85.4686V131.503H87.4703V132.075H84.7757ZM87.8167 132.075L89.0485 130.284L87.9322 128.646H88.7791L89.5105 129.751L90.2033 128.646H91.0502L89.9339 130.322L91.1657 132.075H90.2803L89.472 130.894L88.6636 132.075H87.8167ZM91.6276 132.075V128.646H92.359V130.018H93.7832V128.646H94.5146V132.075H93.7832V130.551H92.359V132.075H91.6276ZM95.169 130.399C95.169 130.056 95.2075 129.751 95.323 129.522C95.4 129.332 95.5155 129.179 95.6694 129.065C95.8234 128.913 95.9774 128.837 96.1314 128.76C96.3623 128.684 96.6318 128.608 96.9012 128.608C97.4401 128.608 97.8636 128.76 98.1715 129.065C98.4795 129.37 98.6334 129.827 98.6334 130.361C98.6334 130.932 98.4795 131.351 98.1715 131.656C97.8636 131.961 97.4401 132.113 96.9012 132.113C96.3623 132.113 95.9389 131.961 95.6309 131.656C95.323 131.389 95.169 130.932 95.169 130.399V130.399ZM95.9004 130.361C95.9004 130.741 95.9774 131.046 96.1699 131.237C96.3623 131.427 96.5933 131.542 96.9012 131.542C97.2092 131.542 97.4401 131.427 97.6326 131.237C97.8251 131.046 97.9021 130.741 97.9021 130.322C97.9021 129.941 97.8251 129.637 97.6326 129.446C97.4401 129.256 97.2092 129.141 96.9012 129.141C96.5933 129.141 96.3623 129.256 96.1699 129.446C95.9774 129.675 95.9004 129.98 95.9004 130.361ZM99.4033 128.646H101.944V132.075H101.213V129.218H100.135V130.703C100.135 131.122 100.135 131.427 100.096 131.58C100.058 131.732 99.9807 131.884 99.8652 131.961C99.7498 132.037 99.5573 132.113 99.3263 132.113C99.2493 132.113 99.0954 132.113 98.8644 132.075V131.542H99.0184C99.1724 131.542 99.2878 131.503 99.3263 131.465C99.3648 131.427 99.4033 131.313 99.4033 131.161V130.551V128.646ZM102.598 130.399C102.598 130.056 102.637 129.751 102.752 129.522C102.829 129.332 102.945 129.179 103.099 129.065C103.253 128.913 103.407 128.837 103.561 128.76C103.792 128.684 104.061 128.608 104.33 128.608C104.869 128.608 105.293 128.76 105.601 129.065C105.909 129.37 106.063 129.827 106.063 130.361C106.063 130.932 105.909 131.351 105.601 131.656C105.293 131.961 104.869 132.113 104.33 132.113C103.792 132.113 103.368 131.961 103.06 131.656C102.752 131.389 102.598 130.932 102.598 130.399V130.399ZM103.33 130.361C103.33 130.741 103.407 131.046 103.599 131.237C103.792 131.427 104.023 131.542 104.33 131.542C104.638 131.542 104.869 131.427 105.062 131.237C105.254 131.046 105.331 130.741 105.331 130.322C105.331 129.941 105.254 129.637 105.062 129.446C104.869 129.256 104.638 129.141 104.33 129.141C104.023 129.141 103.792 129.256 103.599 129.446C103.407 129.675 103.33 129.98 103.33 130.361ZM106.717 128.646H109.142V129.218H107.41V132.075H106.717V128.646ZM109.604 128.646H110.297V130.932L111.76 128.646H112.491V132.075H111.798V129.827L110.335 132.075H109.604V128.646ZM113.223 128.646H113.954V129.484C113.954 129.751 113.954 129.941 113.992 130.018C114.031 130.094 114.069 130.17 114.185 130.246C114.3 130.322 114.454 130.361 114.647 130.361C114.801 130.361 114.955 130.361 115.07 130.322C115.186 130.284 115.301 130.246 115.378 130.17V128.684H116.11V132.113H115.378V130.741C115.224 130.818 115.07 130.856 114.955 130.894C114.801 130.932 114.685 130.932 114.531 130.932C114.185 130.932 113.877 130.856 113.646 130.703C113.415 130.551 113.3 130.246 113.3 129.865V128.646H113.223ZM116.879 132.075V128.646H119.535V129.218H117.572V129.98H119.381V130.551H117.572V131.503H119.574V132.075H116.879ZM122.576 130.818L123.269 131.046C123.154 131.427 123 131.694 122.73 131.884C122.461 132.075 122.153 132.151 121.768 132.151C121.306 132.151 120.883 131.999 120.575 131.694C120.267 131.389 120.113 130.97 120.113 130.399C120.113 129.827 120.267 129.37 120.575 129.065C120.883 128.76 121.306 128.608 121.807 128.608C122.23 128.608 122.615 128.722 122.884 128.989C123.038 129.141 123.154 129.332 123.269 129.637L122.538 129.789C122.499 129.599 122.422 129.484 122.269 129.37C122.115 129.256 121.961 129.218 121.768 129.218C121.499 129.218 121.268 129.294 121.114 129.484C120.96 129.675 120.883 129.98 120.883 130.361C120.883 130.78 120.96 131.122 121.114 131.275C121.268 131.465 121.499 131.542 121.768 131.542C121.961 131.542 122.115 131.465 122.269 131.351C122.422 131.275 122.538 131.084 122.576 130.818V130.818ZM124.001 128.646H124.732V130.094C124.886 130.094 125.002 130.056 125.079 129.98C125.117 129.903 125.233 129.751 125.348 129.446C125.502 129.065 125.656 128.837 125.81 128.76C125.964 128.684 126.195 128.608 126.541 128.608C126.541 128.608 126.58 128.608 126.657 128.608V129.103H126.541C126.387 129.103 126.272 129.103 126.233 129.141C126.156 129.179 126.118 129.218 126.079 129.294C126.041 129.37 125.964 129.522 125.887 129.751C125.848 129.865 125.81 129.98 125.733 130.056C125.694 130.132 125.579 130.208 125.463 130.284C125.617 130.322 125.771 130.399 125.848 130.551C125.925 130.703 126.079 130.856 126.195 131.122L126.695 132.075H125.848L125.425 131.199C125.425 131.199 125.386 131.161 125.386 131.122C125.386 131.122 125.348 131.046 125.31 130.97C125.233 130.818 125.156 130.703 125.079 130.665C125.002 130.627 124.925 130.589 124.809 130.589V132.113H124.078V128.646H124.001ZM127.119 128.646H127.812V130.932L129.274 128.646H130.006V132.075H129.313V129.827L127.85 132.075H127.119V128.646ZM130.776 128.646H131.468V130.932L132.931 128.646H133.663V132.075H132.97V129.827L131.507 132.075H130.776V128.646ZM132.662 127.808H133.008C132.97 128.036 132.893 128.189 132.777 128.303C132.662 128.417 132.469 128.494 132.238 128.494C132.007 128.494 131.853 128.417 131.699 128.303C131.545 128.189 131.468 127.998 131.468 127.808H131.815C131.815 127.922 131.853 127.998 131.93 128.075C132.007 128.113 132.084 128.151 132.238 128.151C132.354 128.151 132.469 128.113 132.546 128.075C132.585 127.998 132.623 127.884 132.662 127.808ZM135.703 128.646H136.511L137.358 130.437L138.089 128.646H138.859L137.627 131.275C137.512 131.542 137.358 131.77 137.204 131.923C137.05 132.075 136.896 132.151 136.665 132.151C136.434 132.151 136.28 132.151 136.165 132.113V131.58C136.28 131.58 136.357 131.58 136.434 131.58C136.588 131.58 136.742 131.542 136.781 131.503C136.858 131.427 136.935 131.313 136.973 131.122L135.703 128.646ZM139.244 132.075V128.646H139.976V130.018H141.4V128.646H142.131V132.075H141.4V130.551H139.976V132.075H139.244ZM142.94 128.646H143.632V130.932L145.095 128.646H145.827V132.075H145.134V129.827L143.671 132.075H142.94V128.646ZM146.635 128.646H148.059C148.329 128.646 148.56 128.646 148.714 128.684C148.868 128.722 148.983 128.76 149.099 128.837C149.214 128.913 149.291 128.989 149.368 129.141C149.445 129.256 149.483 129.408 149.483 129.56C149.483 129.713 149.445 129.865 149.33 130.018C149.214 130.17 149.099 130.246 148.945 130.322C149.176 130.399 149.33 130.475 149.445 130.627C149.56 130.78 149.637 130.932 149.637 131.161C149.637 131.313 149.599 131.465 149.522 131.618C149.445 131.77 149.33 131.884 149.214 131.961C149.099 132.037 148.906 132.113 148.714 132.113C148.598 132.113 148.29 132.151 147.828 132.151H146.596V128.646H146.635ZM147.328 129.218V130.018H147.79C148.059 130.018 148.252 130.018 148.329 130.018C148.444 130.018 148.56 129.98 148.637 129.903C148.714 129.827 148.752 129.751 148.752 129.637C148.752 129.522 148.714 129.446 148.675 129.37C148.598 129.294 148.521 129.256 148.406 129.256C148.329 129.256 148.136 129.256 147.79 129.256H147.328V129.218ZM147.328 130.589V131.503H148.021C148.29 131.503 148.444 131.503 148.521 131.465C148.637 131.465 148.714 131.389 148.791 131.313C148.868 131.237 148.906 131.161 148.906 131.008C148.906 130.894 148.868 130.818 148.829 130.741C148.791 130.665 148.714 130.627 148.598 130.589C148.483 130.551 148.29 130.551 147.944 130.551H147.328V130.589ZM150.292 132.075V128.646H152.948V129.218H150.985V129.98H152.794V130.551H150.985V131.503H152.986V132.075H150.292ZM153.718 132.075V128.646H154.873C155.335 128.646 155.604 128.646 155.719 128.684C155.912 128.722 156.104 128.837 156.22 129.027C156.374 129.218 156.412 129.408 156.412 129.713C156.412 129.941 156.374 130.094 156.297 130.246C156.22 130.399 156.104 130.513 155.989 130.589C155.873 130.665 155.719 130.741 155.604 130.741C155.412 130.78 155.181 130.78 154.834 130.78H154.449V132.075H153.718ZM154.449 129.218V130.208H154.834C155.104 130.208 155.296 130.208 155.412 130.17C155.527 130.132 155.565 130.094 155.642 130.018C155.681 129.941 155.719 129.865 155.719 129.751C155.719 129.637 155.681 129.522 155.604 129.446C155.527 129.37 155.412 129.332 155.296 129.294C155.219 129.294 155.027 129.256 154.757 129.256H154.449V129.218ZM159.299 130.818L159.992 131.046C159.877 131.427 159.723 131.694 159.453 131.884C159.184 132.075 158.876 132.151 158.491 132.151C158.029 132.151 157.606 131.999 157.298 131.694C156.99 131.389 156.836 130.97 156.836 130.399C156.836 129.827 156.99 129.37 157.298 129.065C157.606 128.76 158.029 128.608 158.529 128.608C158.953 128.608 159.338 128.722 159.607 128.989C159.761 129.141 159.877 129.332 159.992 129.637L159.261 129.789C159.222 129.599 159.145 129.484 158.991 129.37C158.837 129.256 158.683 129.218 158.491 129.218C158.222 129.218 157.991 129.294 157.837 129.484C157.683 129.675 157.606 129.98 157.606 130.361C157.606 130.78 157.683 131.122 157.837 131.275C157.991 131.465 158.222 131.542 158.491 131.542C158.683 131.542 158.837 131.465 158.991 131.351C159.145 131.275 159.261 131.084 159.299 130.818V130.818ZM160.685 128.646H161.378V130.932L162.841 128.646H163.572V132.075H162.879V129.827L161.417 132.075H160.685V128.646ZM165.189 132.075V129.218H164.111V128.646H166.96V129.218H165.882V132.075H165.189ZM167.498 132.075V128.646H170.155V129.218H168.191V129.98H170.001V130.551H168.191V131.503H170.193V132.075H167.498ZM171.733 132.075V129.218H170.655V128.646H173.503V129.218H172.426V132.075H171.733Z" fill="#1D1D1B"/>
<path fill-rule="evenodd" clip-rule="evenodd" d="M122.461 79.041L113.954 80.6411C110.143 79.422 106.294 79.4601 102.483 80.3363V104.034H100.905V79.4601H92.7824V103.996H89.5105V81.7079L79.2327 73.2499V132.151H73.6511L73.8051 84.6796L64.7976 82.2794V131.999H59.37L59.216 99.3478C50.632 105.634 43.8186 114.587 41.278 122.664C39.1994 129.179 40.8546 136.914 46.1667 139.428C54.0964 143.162 66.2604 141.676 77.308 138.704C82.4277 137.333 88.7791 134.056 90.6268 133.066H96.9782C94.9766 134.247 83.236 140.952 67.6846 142.971C57.4453 144.267 45.7048 143.047 41.0086 136.609C32.7324 125.293 45.0889 106.168 59.1775 95.576V81.5555L64.7591 78.8886L73.4587 81.5555L79.3097 68.4113L89.318 76.3359L89.5875 80.0315L92.744 76.6026C102.637 75.6501 112.453 75.1168 122.153 77.5932L122.461 79.041ZM110.99 121.788V119.578H110.336C109.45 120.34 108.526 121.102 107.487 121.902C107.102 122.207 106.717 122.512 106.332 122.817H112.491C112.876 122.474 113.261 122.131 113.646 121.788H110.99ZM131.469 88.9467L126.272 85.975L125.117 86.6227C125.117 86.6227 128.351 90.5088 125.81 98.7001C124.694 102.281 122.423 105.329 122.423 105.329V110.968H123.962C124.347 110.549 125.117 109.482 125.348 109.025V105.558H127.85C127.85 105.558 129.505 103.272 130.814 97.9381C131.853 93.4805 131.469 88.9467 131.469 88.9467V88.9467Z" fill="#274193"/>
</g>
<defs>
<clipPath id="clip0_66_200">
<rect width="135.319" height="75.1773" fill="white" transform="translate(38.3403 68.4113)"/>
</clipPath>
</defs>
</svg>
