<svg width="24" height="24" viewBox="0 0 24 24" fill="none" xmlns="http://www.w3.org/2000/svg">
<path d="M12.005 24.01C18.6352 24.01 24.01 18.6352 24.01 12.005C24.01 5.37482 18.6352 0 12.005 0C5.37482 0 0 5.37482 0 12.005C0 18.6352 5.37482 24.01 12.005 24.01Z" fill="url(#paint0_linear_90_735)"/>
<path fill-rule="evenodd" clip-rule="evenodd" d="M5.42774 11.8751C8.92628 10.3557 11.2553 9.34615 12.4248 8.85636C15.7534 7.46694 16.4531 7.22704 16.903 7.21704C17.0029 7.21704 17.2228 7.23703 17.3728 7.35698C17.4927 7.45694 17.5227 7.58689 17.5427 7.68685C17.5627 7.7868 17.5827 7.99672 17.5627 8.15665C17.3828 10.0559 16.6031 14.6639 16.2033 16.7831C16.0333 17.6827 15.7035 17.9826 15.3836 18.0125C14.6839 18.0725 14.1541 17.5527 13.4844 17.1129C12.4248 16.4232 11.8351 15.9934 10.8055 15.3137C9.61599 14.534 10.3857 14.1042 11.0654 13.4045C11.2453 13.2245 14.314 10.4257 14.374 10.1758C14.384 10.1458 14.384 10.0259 14.314 9.9659C14.2441 9.90592 14.1441 9.92591 14.0641 9.9459C13.9542 9.9659 12.2749 11.0854 9.00625 13.2945C8.52645 13.6244 8.09663 13.7843 7.70679 13.7743C7.27697 13.7643 6.45731 13.5344 5.83757 13.3345C5.08788 13.0946 4.48813 12.9646 4.53811 12.5448C4.5681 12.3249 4.86797 12.105 5.42774 11.8751Z" fill="white"/>
<defs>
<linearGradient id="paint0_linear_90_735" x1="11.995" y1="0" x2="11.995" y2="23.8201" gradientUnits="userSpaceOnUse">
<stop stop-color="#2AABEE"/>
<stop offset="1" stop-color="#229ED9"/>
</linearGradient>
</defs>
</svg>
