<svg width="24" height="24" viewBox="0 0 24 24" fill="none" xmlns="http://www.w3.org/2000/svg">
<path d="M12 0C15.3136 0 18.3137 1.34316 20.4853 3.51474C22.6568 5.68633 24 8.68635 24 12C24 15.3136 22.6568 18.3137 20.4853 20.4853C18.3137 22.6568 15.3136 24 12 24C8.68635 24 5.68633 22.6568 3.51474 20.4853C1.34316 18.3137 0 15.3136 0 12C0 8.68635 1.34316 5.68633 3.51474 3.51474C5.68633 1.34316 8.68635 0 12 0ZM18.512 8.50016C18.6061 8.18516 18.512 7.95195 18.062 7.95195H16.5688C16.1883 7.95195 16.0165 8.1524 15.9183 8.3733C15.9183 8.3733 15.1615 10.2224 14.0855 11.4252C13.7378 11.7729 13.5783 11.8834 13.3901 11.8834C13.296 11.8834 13.1529 11.7729 13.1529 11.4579V8.50419C13.1529 8.12374 13.0464 7.95598 12.7315 7.95598H10.3874C10.1501 7.95598 10.007 8.13188 10.007 8.29964C10.007 8.65964 10.5429 8.7415 10.6002 9.75195V11.9488C10.6002 12.4316 10.5143 12.5175 10.322 12.5175C9.81466 12.5175 8.58735 10.6602 7.85511 8.53285C7.7119 8.11964 7.5687 7.95188 7.18825 7.95188H5.69504C5.2696 7.95188 5.1837 8.15233 5.1837 8.37322C5.1837 8.77001 5.69094 10.7296 7.54011 13.3193C8.77153 15.0907 10.5102 16.0479 12.0893 16.0479C13.0384 16.0479 13.1529 15.8352 13.1529 15.4669V14.1292C13.1529 13.7037 13.2429 13.6178 13.5416 13.6178C13.7625 13.6178 14.1429 13.7283 15.0266 14.5833C16.0371 15.5937 16.2048 16.0478 16.7734 16.0478H18.2667C18.6921 16.0478 18.9049 15.8351 18.7821 15.4137C18.6471 14.9964 18.1643 14.3869 17.522 13.6669C17.1743 13.2578 16.6547 12.8119 16.4952 12.5909C16.2743 12.3045 16.3357 12.1818 16.4952 11.9281C16.4952 11.9281 18.3117 9.36718 18.5039 8.49987H18.512L18.512 8.50016ZM19.6772 4.3228C17.7125 2.35814 14.9981 1.14293 12 1.14293C9.00178 1.14293 6.28746 2.35814 4.3228 4.3228C2.35814 6.28746 1.14293 9.00185 1.14293 12C1.14293 14.9982 2.35814 17.7125 4.3228 19.6772C6.28746 21.6419 9.00185 22.8571 12 22.8571C14.9982 22.8571 17.7125 21.6419 19.6772 19.6772C21.6419 17.7125 22.8571 14.9981 22.8571 12C22.8571 9.00178 21.6419 6.28746 19.6772 4.3228Z" fill="#45668E"/>
</svg>
